<?xml version="1.0" encoding="utf-8"?>
<!-- Generator: Adobe Illustrator 27.1.1, SVG Export Plug-In . SVG Version: 6.00 Build 0)  -->
<svg version="1.1" id="Layer_1" xmlns="http://www.w3.org/2000/svg" xmlns:xlink="http://www.w3.org/1999/xlink" x="0px" y="0px"
	 viewBox="0 0 1041.3 554.1" style="enable-background:new 0 0 1041.3 554.1;" xml:space="preserve">
<style type="text/css">
	.st0{fill:#F2F2F2;}
	.st1{opacity:0.1;enable-background:new    ;}
	.st2{fill:#65617D;}
	.st3{opacity:0.2;enable-background:new    ;}
	.st4{fill:#3F3D56;}
	.st5{fill:#39374D;}
	.st6{fill:#4267B2;}
	.st7{fill:#FBBEBE;}
	.st8{fill:#FF6584;}
	.st9{fill:#01579B;}
	.st10{fill:#40C4FF;}
	.st11{fill:#29B6F6;}
	.st12{opacity:0.2;fill:#FFFFFF;enable-background:new    ;}
	.st13{opacity:0.2;fill:#263238;enable-background:new    ;}
	.st14{opacity:0.2;fill:url(#SVGID_1_);enable-background:new    ;}
	.st15{clip-path:url(#SVGID_00000088853950262064567430000010237177618823262595_);}
	.st16{fill:#54C5F8;}
	.st17{clip-path:url(#SVGID_00000168088014100444679910000008440769334970093193_);fill:#54C5F8;}
	.st18{clip-path:url(#SVGID_00000101063535524941279840000001163513788398273676_);fill:#01579B;}
	
		.st19{clip-path:url(#SVGID_00000078755901148618296720000014144114731266357407_);fill:url(#SVGID_00000038405471607478163840000000254385873568874414_);}
	.st20{clip-path:url(#SVGID_00000014626355473285712570000007564036292812050062_);}
	.st21{fill:url(#SVGID_00000029759030729266343350000012984026459133395861_);}
</style>
<g id="Group_23" transform="translate(439.989 262.965)">
	<path id="Path_299" class="st0" d="M521.5,175.2c-1.2,2.5-2.3,5-3.5,7.4c-1.8,3.8-3.6,7.5-5.3,11.1c-0.8,1.6-1.6,3.2-2.3,4.8
		c-8.6,17.6-16.6,33.1-23.5,45.9c-12.6,23.6-37.1,38.4-63.8,38.7l-151.6,1.7h-1.6l-13,0.1l-11.1,0.1l-34.1,0.4h-1.4l-17.4,0.2h-0.5
		l-107,1.2l-95.5,1l-11.1,0.1l-69,0.8h-0.1l-44.8,0.5h-0.5l-141.5,1.5l-42.3,0.5c-3.6,0-7.2-0.1-10.8-0.5l0,0
		c-1.2-0.1-2.4-0.3-3.6-0.5c-19.7-3-37.8-12.8-51.3-27.5c-18.2-20-31.5-43.4-40.4-68.8c-1.3-3.7-2.5-7.4-3.6-11.1
		c-30.8-104.2,6.8-238.5,74.4-328.4c2.8-3.8,5.7-7.4,8.6-11l0.1-0.1c20.8-25.5,44.1-46.8,68.9-62c44-26.9,92.8-34.5,140.7-11.9
		c40.6,19.1,78.5,28.1,115.2,30.6c3.7,0.2,7.4,0.4,11.1,0.5c84.2,2.6,163.2-27.7,255.9-47.3c3.7-0.8,7.4-1.6,11.1-2.3
		c66.1-13.2,139.5-20.1,226.7-5.5c9.1,1.5,18,3.6,26.8,6.4c3.8,1.2,7.6,2.6,11.1,4c41.6,16.9,64.3,48.2,74,87.5
		c0.9,3.6,1.7,7.3,2.4,11.1C615-51.5,564.8,82.3,521.5,175.2z"/>
	<path id="Path_300" class="st1" d="M57,182.6c-0.4,3.7-1,7.5-1.9,11.1h93.7v-11.1H57z M-21.2,245.4l11.1-0.1v-27.5
		c-3.8-0.2-7.5-0.3-11.1-0.5V245.4z M-254.1,182.6v11.1h198.5v-11.1H-254.1z M595.5-156.9h-74v-87.5c-3.6-1.4-7.3-2.8-11.1-4v91.5
		H256.9v-92.4c-3.7,0.7-7.4,1.5-11.1,2.3v90.1H-10.1v-42.9c-3.7-0.1-7.4-0.3-11.1-0.5v43.4h-255.9v-62c-24.8,15.2-48.1,36.5-68.9,62
		h-0.1v0.1c-2.9,3.6-5.8,7.3-8.6,11h8.6v328.4h-83c1.1,3.8,2.3,7.5,3.6,11.1h79.4v93.6c4,1.2,8.1,2.2,12.2,2.8
		c1.2,0.2,2.4,0.3,3.6,0.5l0,0c3.6,0.4,7.2,0.6,10.8,0.5l42.3-0.5v-97h255.9v94.2l11.1-0.1v-94.1h255.9v91.4l11.1-0.1v-91.2h253.5
		v4.8c0.8-1.6,1.5-3.2,2.3-4.8c1.8-3.6,3.5-7.3,5.3-11.1c1.2-2.4,2.3-4.9,3.5-7.4v-321h76.4C597.2-149.6,596.4-153.3,595.5-156.9z
		 M-277.1,182.6v-328.4h255.9v328.4H-277.1z M-10.1,182.6v-328.4h255.9v328.4H-10.1z M510.4,182.6H256.9v-328.4h253.5L510.4,182.6z"
		/>
	<path id="Path_301" class="st2" d="M423.1,270.7v13l-151.9,1.4l-1.6,0l-57.7,0.5l-1.4,0l-17.5,0.2h-0.5l-107,1l-175.6,1.6h-0.1
		l-44.6,0.4l-0.5,0l-198.4,1.8v-15l46.6-28l93.6-0.8l2,0l0.7,0l2,0l44.9-0.4l2,0l0.6,0l2,0l14.4-0.1l0.4,0l35.5-0.3h0.3l277.4-2.3
		l6.8,0h0.7l5.2,0l37.7-0.3l2,0l1.8,0h1l11.7-0.1l2.3,0l3.1,0l9.8-0.1l15.5-0.1l2,0l3.5,0h0.7l74.7-0.6L423.1,270.7z"/>
	<path id="Path_302" class="st3" d="M423.1,270.7v13l-151.9,1.4l-1.6,0l-57.7,0.5l-1.4,0l-17.5,0.2h-0.5l-107,1l-175.6,1.6h-0.1
		l-44.6,0.4l-0.5,0l-198.4,1.8v-15l46.6-28l93.6-0.8l2,0l0.7,0l2,0l44.9-0.4l2,0l0.6,0l2,0l14.4-0.1l0.4,0l35.5-0.3h0.3l277.4-2.3
		l6.8,0h0.7l5.2,0l37.7-0.3l2,0l1.8,0h1l11.7-0.1l2.3,0l3.1,0l9.8-0.1l15.5-0.1l2,0l3.5,0h0.7l74.7-0.6L423.1,270.7z"/>
	<path id="Path_303" class="st4" d="M-143.9,220.7v24.5c0,2.4-1.4,4.5-3.5,5.5c-0.8,0.4-1.6,0.6-2.5,0.6l-34.9,0.7
		c-0.9,0-1.9-0.2-2.7-0.6c-2.2-1-3.6-3.2-3.6-5.6v-25.2H-143.9z"/>
	<path id="Path_304" class="st1" d="M-143.9,220.7v24.5c0,2.4-1.4,4.5-3.5,5.5c-0.8,0.4-1.6,0.6-2.5,0.6l-34.9,0.7
		c-0.9,0-1.9-0.2-2.7-0.6c-2.2-1-3.6-3.2-3.6-5.6v-25.2H-143.9z"/>
	<path id="Path_305" class="st4" d="M-141.9,220.7v24.5c0,2.4-1.4,4.5-3.5,5.5c-0.8,0.4-1.6,0.6-2.5,0.6l-34.9,0.7
		c-0.9,0-1.9-0.2-2.7-0.6c-2.2-1-3.6-3.2-3.6-5.6v-25.2H-141.9z"/>
	<rect id="Rectangle_137" x="240.9" y="220.6" class="st4" width="47.2" height="31.5"/>
	<rect id="Rectangle_138" x="240.9" y="220.6" class="st1" width="47.2" height="31.5"/>
	<rect id="Rectangle_139" x="238.9" y="220.6" class="st4" width="47.2" height="31.5"/>
	<path id="Path_306" class="st1" d="M-141.9,220.6v5l-47.2,1.3v-6.2H-141.9z"/>
	<path id="Path_307" class="st2" d="M-58.6,49.4v168.2c0,2.1-1.7,3.9-3.9,4l-191.6,5.1h0c-2.2,0-3.9-1.8-4-4V49.4c0-2.2,1.8-3.9,4-4
		h191.6C-60.4,45.4-58.7,47.2-58.6,49.4L-58.6,49.4z"/>
	<path id="Path_308" class="st1" d="M-254.1,45.4v181.2h0c-2.2,0-3.9-1.8-4-4V49.4C-258.1,47.2-256.4,45.4-254.1,45.4L-254.1,45.4z"
		/>
	<path id="Path_309" class="st5" d="M-245.4,56.1h177.5v148.2l-177.5,4V56.1z"/>
	<path id="Path_310" class="st1" d="M286.1,220.6v6.4l-47.2-1.3v-5.1H286.1z"/>
	<path id="Path_311" class="st2" d="M348.4,49.4v173.3c0,2.2-1.8,4-4,4l0,0l-191.7-5.1c-2.1-0.1-3.8-1.8-3.8-4V49.4
		c0-2.2,1.8-3.9,4-4h191.6C346.5,45.4,348.3,47.2,348.4,49.4z"/>
	<path id="Path_312" class="st1" d="M348.4,49.4v173.3c0,2.2-1.8,4-4,4l0,0V45.4l0,0C346.5,45.4,348.3,47.2,348.4,49.4L348.4,49.4z"
		/>
	<path id="Path_313" class="st5" d="M335.6,56.1H158.1v148.2l177.5,4V56.1z"/>
	<path id="Path_314" class="st2" d="M143.9,49.4v168.2c0,2.1-1.7,3.9-3.8,4l-191.6,5.1l0,0c-2.2,0-4-1.8-4-4V49.4c0-2.2,1.8-3.9,4-4
		h191.6C142.1,45.4,143.8,47.2,143.9,49.4z"/>
	<path id="Path_315" class="st6" d="M-42.9,56.1h177.5v148.2l-177.5,4L-42.9,56.1z"/>
	<path id="Path_316" class="st1" d="M423.1,270.7v13l-151.9,1.4l-1.6,0l-57.7,0.5l-1.4,0l-17.5,0.2h-0.5l-107,1l-175.6,1.6h-0.1
		l-44.6,0.4l-0.5,0l-198.4,1.8v-15l202.5-1.3h0.5l41-0.3h0.2l283.1-1.9h0.3l0.2,0h0.5l4.8,0h1.5l74.5-0.5l4.4,0l1,0L423.1,270.7z"/>
	<circle id="Ellipse_111" class="st7" cx="47.3" cy="35.2" r="51.3"/>
	<path id="Path_317" class="st7" d="M98.6,114.2c0,0-99.5,12-90,0C12,109.8,13,97,12.8,82.3c-0.1-4.5-0.2-9.1-0.5-13.6
		c-1.1-22-3.8-43.5-3.8-43.5s87-41,77-8.5c-4,13.1-2.7,31.6,0.3,48.9c0.9,5,1.9,10,3,14.7C91.6,91.7,94.8,103,98.6,114.2z"/>
	<path id="Path_318" class="st8" d="M66.1,110.1c11.5-2.1,23.7-6,34.5-1.5c2.8,1.2,5.5,2.9,8.4,3.9s6.1,1.2,9.2,1.9
		c10.7,2.4,19.3,10.5,24.9,20s8.4,20.1,11.3,30.7l6.9,25.8c6,22.5,12,45.1,13.4,68.3c-83.5,4.8-167.3,5.3-250.8,1.4
		c5.4-10.3,11-21.3,10.5-33s-7.2-23.2-4.8-34.7c1.5-7.3,6.6-13.4,9.6-20.2c8.8-19.5,1.9-45.8,17.3-60.7c6.9-6.7,17-9.2,26.6-8.9
		c12.3,0.4,24.8,4.2,37,6.1C35.8,111.6,50.4,113,66.1,110.1z"/>
	<path id="Path_319" class="st1" d="M197,221.3l-0.1,1.4v0.1l-0.2,2.3l-1.3,18.5l-1.6,22.3l-0.5,6.3l-1,13.4v0.2l-107,1l-175.6,1.9
		v0.8h-0.1v-1.1l0.5-14.4l0.9-28.1l0.7-23.8l0.1-2.4c0.2-5.8,5-10.4,10.8-10.2c0.2,0,0.4,0,0.6,0c4.7,0.4,10.9,0.9,18.2,1.4l3,0.2
		c42.3,2.9,120.6,6.7,199.5,2c1.7-0.1,3.3-0.2,5-0.3c12.2-0.8,24.5-1.8,36.6-3c5.8-0.6,11,3.6,11.6,9.4
		C197.1,220,197.1,220.6,197,221.3L197,221.3z"/>
	<path id="Path_320" class="st4" d="M-90.3,289.5v-0.8l175.6-1.9l107-1h0.3v-0.2l1-13.4l0.4-6l1.6-22.6l1.3-17.9v-0.4
		c0.1-0.8,0-1.7-0.1-2.5c0,0,0-0.1,0-0.1c-0.3-1.7-1-3.3-2-4.6c-2.2-2.9-5.8-4.4-9.4-4c-12.1,1.2-24.3,2.2-36.6,3
		c-1.7,0.1-3.3,0.2-5,0.3c-78.9,4.7-157.2,0.9-199.5-2l-3-0.2c-7.3-0.5-13.5-1-18.2-1.4c-5.4-0.5-10.2,3.2-11.2,8.5
		c-0.1,0.5-0.2,1.1-0.2,1.6l-0.7,22.2l-0.9,28.1l-0.4,14.4L-90.3,289.5L-90.3,289.5z"/>
	<path id="Path_321" class="st1" d="M197.3,228.3l-1.2,15.3l-1.8,22.8l-0.5,5.7l-1,12.8l-0.1,0.6v0.2l0,0l-0.2,1.5l0.1-1.5h-0.3
		l-107,1l-175.6,1.9v-0.3l0.5-14.4l1-28.1l0.6-18.7c0.1-2.2,1.2-4.1,3.1-5.2c1.1-0.7,2.5-1,3.8-0.9c2.1,0.2,4.7,0.4,7.7,0.6
		c4.9,0.4,10.9,0.8,17.9,1.2c13,0.8,29.3,1.7,48,2.4c52,2,122.2,2.7,188.9-3.2c3-0.3,6.1-0.5,9.1-0.8c1.2-0.1,2.4,0.1,3.5,0.7
		c0.3,0.2,0.6,0.3,0.9,0.5c0.9,0.6,1.6,1.5,2,2.5c0.1,0.2,0.2,0.4,0.2,0.6C197.3,226.5,197.4,227.4,197.3,228.3z"/>
	<path id="Path_322" class="st1" d="M-141.9,242v3.2c0,2.4-1.4,4.5-3.5,5.5l-40.1,0.8c-2.2-1-3.6-3.2-3.6-5.6v-3L-141.9,242z"/>
	<path id="Path_323" class="st4" d="M-141.4,252.6l-52.2,1v-8.7l52.2-1V252.6z"/>
	<path id="Path_324" class="st1" d="M-141.4,252.6l-52.2,1v-8.7l52.2-1V252.6z"/>
	<path id="Path_325" class="st4" d="M-139.4,252.6l-52.2,1v-8.7l52.2-1V252.6z"/>
	<path id="Path_326" class="st1" d="M239.2,244v3.2c0,2.4,1.4,4.5,3.5,5.5l40.1,0.8c2.2-1,3.6-3.2,3.6-5.6v-3L239.2,244z"/>
	<path id="Path_327" class="st1" d="M238.7,254.6l52.2,1v-8.7l-52.2-1V254.6z"/>
	<path id="Path_328" class="st4" d="M236.7,254.6l52.2,1v-8.7l-52.2-1V254.6z"/>
	<path id="Path_329" class="st4" d="M14.8,50.9c0.1,7-3.2,13.6-5.9,20.1c-10,23.6-14.3,49.2-12.7,74.7c0.7,11,2.6,22,0.7,32.9
		s-8.4,21.8-19,24.9c17.5,10.5,41.3,9.3,57.8-2.7c8.8-6.4,15.3-15.3,21.8-24.1c-0.8,15.8-5.3,31.1-13.3,44.8
		c29.2-2.6,55.9-17.4,73.5-40.8c4.3-5.8,8.1-12.2,9.7-19.2c3.1-13-1.2-26.5-4.5-39.5c-2.7-10.9-4.8-21.9-6.2-33
		c-0.4-3.6-0.8-7.2,0.1-10.7c1-4.1,3.7-7.5,5.6-11.2c5.6-10.5,5.7-23.3,2.9-34.9s-8.5-22.3-14.1-32.8C106.8-9.2,101.9-18,93.8-23
		c-5.1-3.1-11-4.4-16.9-5.6l-25.4-5.4c-5.5-1.2-11.3-2.4-16.9-1.5c-9.5,1.5-16.1,8.3-22,15.3C8.1-14.8-3.2-4.5-3.9,2.6
		c-0.7,6.6,5.1,17.6,6.1,24.6c1.3,9,2.2,6,7.3,11.5C12.7,42.1,14.7,46.1,14.8,50.9z"/>
</g>
<g>
	<path class="st9" d="M654.4,421.3l-16.8-16.8c-2-2-3.2-4.9-3.2-7.8c0-1.3,0.7-3.4,1.3-4.5l15.5-32.3L654.4,421.3z"/>
	<path class="st10" d="M711.9,363.2l-16.8-16.8c-1.5-1.5-4.5-3.2-7.1-3.2c-2.2,0-4.4,0.4-5.8,1.3l-31,15.5L711.9,363.2z"/>
	<polygon class="st10" points="674.4,441.4 715.2,441.4 715.2,423.9 684.8,414.2 657,423.9 	"/>
	<path class="st11" d="M651.2,412.3c0,5.2,0.6,6.5,3.2,9l2.6,2.6h58.2l-28.4-32.3l-35.6-31.7V412.3z"/>
	<path class="st9" d="M702.9,359.9h-51.7l64,64h17.5v-40.1l-20.7-20.7C709,360.2,706.4,359.9,702.9,359.9z"/>
	<path class="st12" d="M655,422c-2.6-2.6-3.2-5.2-3.2-9.7v-51.7l-0.6-0.6v52.4C651.2,416.8,651.2,418.1,655,422l1.9,1.9l0,0L655,422
		z"/>
	<polygon class="st13" points="732,383.2 732,423.3 714.5,423.3 715.2,423.9 732.6,423.9 732.6,383.8 	"/>
	<path class="st12" d="M711.9,363.2c-3.2-3.2-5.8-3.2-9.7-3.2h-51.1l0.6,0.6h50.4C704.2,360.6,709,360.2,711.9,363.2L711.9,363.2z"
		/>
	
		<radialGradient id="SVGID_1_" cx="683.4811" cy="163.7579" r="49.1291" gradientTransform="matrix(1 0 0 -1 0 556)" gradientUnits="userSpaceOnUse">
		<stop  offset="0" style="stop-color:#FFFFFF;stop-opacity:0.1"/>
		<stop  offset="1" style="stop-color:#FFFFFF;stop-opacity:0"/>
	</radialGradient>
	<path class="st14" d="M732,383.2l-20-20l-16.8-16.8c-1.5-1.5-4.5-3.2-7.1-3.2c-2.2,0-4.4,0.4-5.8,1.3l-31,15.5l-15.5,32.3
		c-0.6,1.2-1.3,3.2-1.3,4.5c0,2.8,1.2,5.7,3.2,7.8l15.5,15.4c0.4,0.5,0.8,0.9,1.3,1.4l0.6,0.6l1.9,1.9l16.8,16.8l0.6,0.6h40.1h0.6
		v-17.5h17.5v0v-40L732,383.2z"/>
</g>
<g>
	<g>
		<g>
			<g>
				<defs>
					<path id="SVGID_00000172430819887676921680000006836717470934350740_" d="M317.2,390.2l-26.1,26.1l26.1,26.1l0,0h-29.9
						l-11.2-11.2l0,0l-14.9-14.9l26.1-26.1L317.2,390.2L317.2,390.2L317.2,390.2z M287.4,345.4l-48.5,48.5l14.9,14.9l63.5-63.5
						H287.4z"/>
				</defs>
				<clipPath id="SVGID_00000172410600604220114200000011333941487494216102_">
					<use xlink:href="#SVGID_00000172430819887676921680000006836717470934350740_"  style="overflow:visible;"/>
				</clipPath>
				<g style="clip-path:url(#SVGID_00000172410600604220114200000011333941487494216102_);">
					
						<image style="overflow:visible;opacity:0.2;enable-background:new    ;" width="125" height="97" xlink:href="AB1A2C302C0BD247.png"  transform="matrix(0.5605 0 0 0.5605 256.4659 385.7685)">
					</image>
					<g>
						<polygon class="st16" points="317.2,390.2 317.2,390.2 317.2,390.2 287.4,390.2 261.2,416.3 276.2,431.3 						"/>
					</g>
				</g>
			</g>
		</g>
		<g>
			<g>
				<defs>
					<path id="SVGID_00000093138665566763985010000017920914582052015549_" d="M317.2,390.2l-26.1,26.1l26.1,26.1l0,0h-29.9
						l-11.2-11.2l0,0l-14.9-14.9l26.1-26.1L317.2,390.2L317.2,390.2L317.2,390.2z M287.4,345.4l-48.5,48.5l14.9,14.9l63.5-63.5
						H287.4z"/>
				</defs>
				<clipPath id="SVGID_00000167359505258924202220000011530863693353640107_">
					<use xlink:href="#SVGID_00000093138665566763985010000017920914582052015549_"  style="overflow:visible;"/>
				</clipPath>
				<polygon style="clip-path:url(#SVGID_00000167359505258924202220000011530863693353640107_);fill:#54C5F8;" points="
					253.8,408.9 238.8,393.9 287.4,345.4 317.2,345.4 				"/>
			</g>
		</g>
		<g>
			<g>
				<defs>
					<path id="SVGID_00000133523736315618751570000017581813507332741801_" d="M317.2,390.2l-26.1,26.1l26.1,26.1l0,0h-29.9
						l-11.2-11.2l0,0l-14.9-14.9l26.1-26.1L317.2,390.2L317.2,390.2L317.2,390.2z M287.4,345.4l-48.5,48.5l14.9,14.9l63.5-63.5
						H287.4z"/>
				</defs>
				<clipPath id="SVGID_00000102543405199587162890000001635017843573273013_">
					<use xlink:href="#SVGID_00000133523736315618751570000017581813507332741801_"  style="overflow:visible;"/>
				</clipPath>
				<polygon style="clip-path:url(#SVGID_00000102543405199587162890000001635017843573273013_);fill:#01579B;" points="
					276.2,431.3 287.4,442.5 317.2,442.5 317.2,442.5 291.1,416.3 				"/>
			</g>
		</g>
		<g>
			<g>
				<defs>
					<path id="SVGID_00000036958917811607887200000012208204106868954046_" d="M317.2,390.2l-26.1,26.1l26.1,26.1l0,0h-29.9
						l-11.2-11.2l0,0l-14.9-14.9l26.1-26.1L317.2,390.2L317.2,390.2L317.2,390.2z M287.4,345.4l-48.5,48.5l14.9,14.9l63.5-63.5
						H287.4z"/>
				</defs>
				<clipPath id="SVGID_00000019661985824366413560000003881521594903561129_">
					<use xlink:href="#SVGID_00000036958917811607887200000012208204106868954046_"  style="overflow:visible;"/>
				</clipPath>
				
					<linearGradient id="SVGID_00000032611326700714637910000007149327188930522540_" gradientUnits="userSpaceOnUse" x1="7950.0518" y1="4892.6011" x2="7994.5562" y2="4848.0967" gradientTransform="matrix(0.25 0 0 0.25 -1707 -789)">
					<stop  offset="0" style="stop-color:#1A237E;stop-opacity:0.4"/>
					<stop  offset="1" style="stop-color:#1A237E;stop-opacity:0"/>
				</linearGradient>
				
					<polygon style="clip-path:url(#SVGID_00000019661985824366413560000003881521594903561129_);fill:url(#SVGID_00000032611326700714637910000007149327188930522540_);" points="
					276.2,431.3 298.3,423.6 291.1,416.3 				"/>
			</g>
		</g>
		<g>
			<g>
				<defs>
					<path id="SVGID_00000122703383272312694780000005416917931618835861_" d="M317.2,390.2l-26.1,26.1l26.1,26.1l0,0h-29.9
						l-11.2-11.2l0,0l-14.9-14.9l26.1-26.1L317.2,390.2L317.2,390.2L317.2,390.2z M287.4,345.4l-48.5,48.5l14.9,14.9l63.5-63.5
						H287.4z"/>
				</defs>
				<clipPath id="SVGID_00000152226581623495600750000013175589602311897532_">
					<use xlink:href="#SVGID_00000122703383272312694780000005416917931618835861_"  style="overflow:visible;"/>
				</clipPath>
				<g style="clip-path:url(#SVGID_00000152226581623495600750000013175589602311897532_);">
					
						<rect x="265.6" y="405.8" transform="matrix(0.7071 -0.7071 0.7071 0.7071 -213.5033 317.2109)" class="st11" width="21.1" height="21.1"/>
				</g>
			</g>
		</g>
	</g>
	
		<radialGradient id="SVGID_00000105385315773509198510000013200706294314504592_" cx="7792.0742" cy="4563.9673" r="475.1726" gradientTransform="matrix(0.25 0 0 0.25 -1707 -789)" gradientUnits="userSpaceOnUse">
		<stop  offset="0" style="stop-color:#FFFFFF;stop-opacity:0.1"/>
		<stop  offset="1" style="stop-color:#FFFFFF;stop-opacity:0"/>
	</radialGradient>
	<path style="fill:url(#SVGID_00000105385315773509198510000013200706294314504592_);" d="M317.2,390.2l-26.1,26.1l26.1,26.1l0,0
		h-29.9l-11.2-11.2l0,0l-14.9-14.9l26.1-26.1L317.2,390.2L317.2,390.2L317.2,390.2z M287.4,345.4l-48.5,48.5l14.9,14.9l63.5-63.5
		H287.4z"/>
</g>
</svg>
